<svg xmlns="http://www.w3.org/2000/svg" viewBox="0 0 1600 900" role="img" aria-labelledby="title desc">
  <title id="title">IntegraDraw demo poster</title>
  <desc id="desc">A dark visual calculus workbench showing a bell curve, numerical rectangles and the title See an integral take shape.</desc>
  <defs>
    <pattern id="grid" width="64" height="64" patternUnits="userSpaceOnUse">
      <path d="M64 0H0V64" fill="none" stroke="#f4f1ea" stroke-opacity=".08"/>
    </pattern>
    <filter id="glow" x="-20%" y="-20%" width="140%" height="140%">
      <feGaussianBlur stdDeviation="12" result="blur"/>
      <feMerge><feMergeNode in="blur"/><feMergeNode in="SourceGraphic"/></feMerge>
    </filter>
  </defs>
  <rect width="1600" height="900" fill="#0e1111"/>
  <rect x="42" y="42" width="1516" height="816" fill="url(#grid)" stroke="#f4f1ea" stroke-opacity=".16"/>
  <g transform="translate(92 90)">
    <rect width="56" height="56" fill="#f4f1ea"/>
    <path d="M18 10h10c-4 0-5 3-5 7v20c0 5-2 8-6 8h-4" fill="none" stroke="#0e1111" stroke-width="5"/>
    <path d="M31 14h5c7 0 11 5 11 14s-4 14-11 14h-5z" fill="none" stroke="#b44a2a" stroke-width="4"/>
    <text x="78" y="37" fill="#f4f1ea" font-family="Arial, Helvetica, sans-serif" font-size="24" font-weight="700">INTEGRADRAW</text>
  </g>
  <text x="92" y="276" fill="#f4f1ea" font-family="Arial, Helvetica, sans-serif" font-size="104" font-weight="700" letter-spacing="-6">See an integral</text>
  <text x="92" y="378" fill="#dd7b54" font-family="Arial, Helvetica, sans-serif" font-size="104" font-weight="700" letter-spacing="-6">take shape.</text>
  <text x="98" y="446" fill="#f4f1ea" fill-opacity=".58" font-family="Arial, Helvetica, sans-serif" font-size="25">Midpoint rectangles. Trapezoids. A numerical reference. The error stays visible.</text>
  <g transform="translate(730 110)">
    <rect width="730" height="650" fill="#f8f5ee"/>
    <g stroke="#0e1111" stroke-opacity=".10">
      <path d="M0 108h730M0 216h730M0 324h730M0 432h730M0 540h730"/>
      <path d="M104 0v650M208 0v650M312 0v650M416 0v650M520 0v650M624 0v650"/>
    </g>
    <line x1="38" y1="410" x2="692" y2="410" stroke="#0e1111" stroke-opacity=".45"/>
    <g fill="#225c7e" fill-opacity=".18" stroke="#225c7e" stroke-width="2">
      <rect x="142" y="363" width="54" height="47"/>
      <rect x="196" y="308" width="54" height="102"/>
      <rect x="250" y="231" width="54" height="179"/>
      <rect x="304" y="164" width="54" height="246"/>
      <rect x="358" y="164" width="54" height="246"/>
      <rect x="412" y="231" width="54" height="179"/>
      <rect x="466" y="308" width="54" height="102"/>
      <rect x="520" y="363" width="54" height="47"/>
    </g>
    <path d="M88 405C160 398 190 344 235 282s75-133 130-133 86 71 130 133 75 116 148 123" fill="none" stroke="#b44a2a" stroke-width="7" stroke-linecap="round" filter="url(#glow)"/>
    <rect x="34" y="34" width="194" height="42" fill="#0e1111"/>
    <text x="52" y="62" fill="#f4f1ea" font-family="monospace" font-size="17">f(x) = exp(−x²)</text>
    <text x="42" y="604" fill="#686d69" font-family="Arial, Helvetica, sans-serif" font-size="15" font-weight="700">SIMPSON REFERENCE</text>
    <text x="692" y="607" text-anchor="end" fill="#0e1111" font-family="monospace" font-size="28" font-weight="700">1.772415</text>
  </g>
  <text x="98" y="796" fill="#f4f1ea" fill-opacity=".42" font-family="monospace" font-size="16">JAVA 17 / TYPESCRIPT / CANVAS / GITHUB PAGES</text>
</svg>
